<svg width="74" height="29" viewBox="0 0 74 29" fill="none" xmlns="http://www.w3.org/2000/svg">
<path d="M72.9394 8.55328C72.2081 9.31829 71.3731 10.0089 70.7617 10.8598C65.3181 18.4368 57.4884 22.2458 48.7687 24.3049C45.7586 25.0156 42.3394 24.9474 39.2854 24.3396C30.5562 22.6026 22.5567 19.0131 15.661 13.2833C13.6735 11.6317 11.9972 9.60587 10.5488 7.23524C11.346 7.5354 12.155 7.80768 12.9381 8.14098C15.2444 9.12288 17.5052 10.2254 19.8565 11.0811C20.8831 11.4547 22.0917 11.4486 23.2071 11.3952C23.6209 11.3753 24.2502 10.7733 24.3302 10.3513C24.4043 9.96007 23.9689 9.15808 23.6007 9.04409C17.5347 7.16548 12.3267 3.61156 6.83611 0.605347C4.91135 -0.448518 3.6955 -0.156394 2.88203 1.71831C0.815369 6.48096 -0.0976121 11.5079 0.00822449 16.7055C0.0117097 16.878 0.281642 17.0451 0.690407 17.5207C4.91327 15.9362 3.59884 11.4147 5.67944 7.7727C6.20272 8.64366 6.51077 9.33828 6.97594 9.90361C15.9772 20.8429 27.8257 26.6327 41.5971 28.794C43.6943 29.1231 45.9473 28.9929 48.0538 28.6357C55.8871 27.3069 62.8709 24.0296 68.6387 18.5443C70.4968 16.7773 71.8293 14.4179 73.2104 12.2095C73.7466 11.3519 73.7525 10.1627 74 9.12466C73.6464 8.93422 73.2929 8.74372 72.9394 8.55328Z" fill="black"/>
</svg>
