<svg width="103" height="33" viewBox="0 0 103 33" fill="none" xmlns="http://www.w3.org/2000/svg">
<path d="M13.6526 2.82701C13.6496 2.92836 13.6407 3.02142 13.626 3.10619C13.6113 3.19097 13.5967 3.27574 13.582 3.36051L13.4314 4.22942L11.3983 15.2065L11.3616 15.4184C11.3469 15.5032 11.3037 15.6267 11.2319 15.7889C11.2056 15.8571 11.1709 15.9311 11.128 16.011C11.0875 16.0767 11.0457 16.1496 11.0028 16.2294C10.9028 16.3867 10.7818 16.4967 10.64 16.5595C10.5074 16.6529 10.3103 16.6988 10.0486 16.6971C9.6383 16.7134 9.28414 16.6156 8.98611 16.4039C8.82203 16.259 8.71935 16.0957 8.67809 15.9139C8.65473 15.8808 8.63381 15.8335 8.61535 15.7721C8.62025 15.7438 8.61346 15.699 8.595 15.6376C8.57898 15.562 8.57003 15.4877 8.56814 15.4146C8.5687 15.3274 8.56926 15.2402 8.56982 15.153C8.58206 15.0823 8.58724 15.0105 8.58535 14.9374C8.59759 14.8667 8.60277 14.7949 8.60088 14.7218C8.58486 14.6462 8.58053 14.5873 8.58787 14.5449C8.59767 14.4884 8.60868 14.4248 8.62092 14.3541C8.65897 14.3025 8.69146 14.199 8.71839 14.0436L9.02969 12.373L9.51359 9.70639L8.36917 9.50809L4.06334 8.78382L3.1543 13.778L3.11758 13.9899C3.10289 14.0747 3.05967 14.1982 2.9879 14.3604C2.96153 14.4286 2.92688 14.5026 2.88393 14.5825C2.84343 14.6482 2.80171 14.721 2.75876 14.8009C2.65874 14.9582 2.53781 15.0682 2.39596 15.131C2.26335 15.2244 2.06621 15.2703 1.80455 15.2686C1.39426 15.2848 1.0401 15.1871 0.742074 14.9754C0.615477 14.8661 0.505736 14.7016 0.412853 14.4817C0.394389 14.4203 0.387605 14.3755 0.392501 14.3472L0.350956 14.2091C0.33494 14.1335 0.325988 14.0592 0.3241 13.9861C0.32466 13.8989 0.325221 13.8117 0.325781 13.7245C0.338022 13.6538 0.343199 13.582 0.341311 13.5089C0.339423 13.4358 0.337535 13.3627 0.335647 13.2896C0.341104 13.1741 0.361914 13.054 0.398076 12.9293L0.45316 12.6114L0.764461 10.9408L1.34667 7.83283C1.43914 7.38317 1.52699 6.91815 1.61023 6.43777C1.69347 5.9574 1.77915 5.4629 1.86729 4.95427C1.94129 4.44319 2.01257 3.98985 2.08112 3.59425C2.1638 3.2011 2.26211 2.75972 2.37605 2.27012L2.39074 2.18534C2.42935 2.04651 2.4609 1.90644 2.48538 1.76516C2.51231 1.60974 2.5463 1.45555 2.58736 1.30259C2.62597 1.16375 2.67042 1.0332 2.72071 0.910938C2.78758 0.776997 2.86857 0.645504 2.9637 0.516459C3.02567 0.410774 3.0981 0.328731 3.18098 0.270329C3.26631 0.197797 3.36455 0.134779 3.47569 0.0812731C3.72133 0.00741554 3.95718 -0.0099277 4.18324 0.029243C4.29627 0.0488284 4.39395 0.0730296 4.47627 0.101847C4.56104 0.116536 4.64459 0.13829 4.72691 0.167107C4.89401 0.210613 5.0418 0.323539 5.17028 0.505884C5.26618 0.624369 5.3243 0.750863 5.34465 0.885365C5.38347 1.08128 5.3977 1.2511 5.38734 1.39484C5.38434 1.49618 5.37549 1.58924 5.3608 1.67402C5.34611 1.75879 5.33142 1.84356 5.31673 1.92833L5.16617 2.79724L4.51786 6.28673C4.63089 6.30631 4.75805 6.32834 4.89933 6.35283C5.05475 6.37976 5.23258 6.40329 5.43283 6.42344C6.16752 6.55074 6.89392 6.68389 7.61203 6.82287C8.34427 6.96431 9.11305 7.1048 9.91838 7.24434L9.93957 7.24802C10.0497 6.61223 10.155 6.0047 10.2554 5.42543C10.3699 4.8486 10.4964 4.24474 10.6348 3.61385C10.6593 3.47257 10.6837 3.33128 10.7082 3.18999C10.7493 3.03703 10.7903 2.88406 10.8314 2.73109C10.87 2.59226 10.9145 2.46171 10.9648 2.33945C11.0316 2.2055 11.1126 2.07401 11.2077 1.94497C11.2556 1.83683 11.3209 1.75357 11.4038 1.69516C11.5033 1.62508 11.6157 1.56451 11.7409 1.51345C11.9583 1.4347 12.1871 1.41613 12.4273 1.45775C12.5403 1.47734 12.638 1.50154 12.7203 1.53035C12.8192 1.54749 12.9028 1.56924 12.971 1.59561C13.1639 1.65815 13.3116 1.77107 13.4143 1.93439C13.5151 2.02462 13.5732 2.15111 13.5887 2.31387C13.6023 2.40354 13.6088 2.49198 13.6082 2.5792C13.6242 2.65474 13.639 2.73735 13.6526 2.82701Z" fill="black"/>
<path d="M19.2201 3.24601C20.2279 3.05682 21.1096 3.04952 21.8652 3.22411C22.635 3.40115 23.293 3.71891 23.8393 4.17739C24.3881 4.62175 24.8242 5.17029 25.1477 5.82301C25.4853 6.47817 25.7259 7.18929 25.8695 7.95637C25.9884 8.52998 26.0529 9.12327 26.0632 9.73626C26.0734 10.3492 26.0341 10.9537 25.9454 11.5495C25.8733 12.1337 25.753 12.7022 25.5844 13.2551C25.4299 13.8105 25.2405 14.3161 25.0159 14.772C24.8749 15.0823 24.7246 15.3618 24.565 15.6107C24.4055 15.8595 24.2247 16.1047 24.0228 16.3462C23.5643 16.8926 23.0194 17.3075 22.3882 17.591C21.7711 17.877 21.117 18.0402 20.4261 18.0806C19.9544 18.1152 19.4783 18.091 18.998 18.0077C18.52 17.9104 18.0577 17.7648 17.6111 17.571C17.1669 17.363 16.7454 17.1081 16.3465 16.8061C15.9643 16.4925 15.6272 16.1285 15.3352 15.714C14.9706 15.2143 14.6948 14.6644 14.5077 14.0644C14.3231 13.4503 14.2057 12.826 14.1555 12.1916C14.1078 11.543 14.1167 10.9042 14.182 10.2752C14.2473 9.6462 14.3501 9.05279 14.4905 8.49499C14.6234 7.97958 14.819 7.43864 15.0773 6.87217C15.3496 6.30814 15.689 5.77755 16.0953 5.2804C16.5016 4.78324 16.9617 4.35362 17.4756 3.99152C18.006 3.61775 18.5875 3.36925 19.2201 3.24601ZM22.6075 13.1759C22.8921 12.5412 23.0925 11.8046 23.2087 10.9662C23.3249 10.1277 23.3265 9.32028 23.2137 8.54397C23.1366 8.06493 23.0073 7.63505 22.8259 7.25435C22.6611 6.86196 22.4321 6.54578 22.1389 6.3058C21.8599 6.06827 21.5085 5.91278 21.0846 5.83933C20.6608 5.76589 20.1654 5.81103 19.5986 5.97476C19.2609 6.07632 18.9557 6.24173 18.6831 6.47101C18.4247 6.70273 18.1954 6.97589 17.9954 7.29049C17.8095 7.60755 17.6423 7.9424 17.4939 8.29506C17.3596 8.65016 17.256 8.99603 17.1831 9.33267C17.0912 9.69511 17.0168 10.0824 16.9599 10.4946C16.9055 10.8927 16.8781 11.3027 16.8778 11.7246C16.894 12.1349 16.9409 12.536 17.0186 12.9278C17.0986 13.3055 17.2343 13.6564 17.4255 13.9806C17.7194 14.4682 18.0919 14.8383 18.5429 15.0911C19.0104 15.3322 19.4942 15.4378 19.9942 15.408C20.8006 15.3731 21.4834 14.9603 22.0424 14.1694C22.2658 13.888 22.4542 13.5568 22.6075 13.1759Z" fill="black"/>
<path d="M41.317 7.5988C41.3313 7.936 41.2808 8.26925 41.1656 8.59854C41.0669 8.91616 40.9519 9.20184 40.8206 9.45559C40.5556 9.97723 40.2513 10.5576 39.9077 11.1966C39.5641 11.8356 39.2206 12.4746 38.877 13.1136C38.5334 13.7526 38.203 14.3575 37.8858 14.9283C37.5711 15.485 37.3088 15.9489 37.099 16.32C36.894 16.6628 36.6735 17.0539 36.4372 17.4932C36.201 17.9326 35.9307 18.3587 35.6263 18.7716C35.3385 19.1729 35.0144 19.5315 34.6541 19.8474C34.3079 20.1658 33.9152 20.3743 33.4761 20.4728C33.037 20.5714 32.6552 20.5489 32.3308 20.4053C32.0089 20.2477 31.7345 20.0255 31.5077 19.7388C31.2833 19.438 31.0899 19.0843 30.9275 18.6778C30.7817 18.2596 30.6582 17.838 30.5573 17.413C30.4563 16.988 30.3669 16.5796 30.2893 16.1878C30.2141 15.7819 30.1433 15.4349 30.0768 15.1468C29.8053 14.1102 29.5859 13.0244 29.4188 11.8894C29.2516 10.7544 29.0688 9.66769 28.8704 8.62916C28.8205 8.32945 28.7662 7.97078 28.7076 7.55314C28.6514 7.12138 28.6364 6.70403 28.6626 6.30108C28.7053 5.88646 28.8184 5.52768 29.0019 5.22476C29.1878 4.9077 29.4966 4.7211 29.9284 4.66494C30.0181 4.65137 30.1065 4.64486 30.1937 4.64542C30.2975 4.6343 30.393 4.62902 30.4803 4.62958C30.5792 4.64672 30.6698 4.6697 30.7521 4.69852C30.8344 4.72733 30.9201 4.77857 31.0092 4.85222C31.075 4.89272 31.1395 4.94028 31.2028 4.99491C31.2686 5.03541 31.3248 5.08881 31.3715 5.15512C31.4158 5.23555 31.453 5.31476 31.4831 5.39275C31.5274 5.47319 31.5717 5.55362 31.616 5.63406C31.6412 5.7403 31.6606 5.83826 31.6742 5.92793C31.7043 6.00591 31.7274 6.08268 31.7434 6.15822C31.7546 6.26201 31.774 6.35997 31.8017 6.45209C31.8318 6.53007 31.8549 6.60684 31.8709 6.68238L31.9356 7.06469L33.4781 16.3038L37.9931 8.13615L38.2039 7.80157C38.2444 7.73583 38.2849 7.67008 38.3254 7.60433C38.3684 7.52446 38.4125 7.43752 38.4579 7.34351C38.4984 7.27777 38.5389 7.21202 38.5794 7.14628C38.6365 7.06885 38.7006 6.99265 38.7718 6.91767C38.8265 6.85437 38.8811 6.79107 38.9357 6.72777C39.0069 6.65279 39.0769 6.58488 39.1456 6.52403C39.1978 6.47486 39.2558 6.43398 39.3197 6.40138C39.3977 6.37124 39.4674 6.34693 39.5288 6.32847C39.6516 6.29154 39.7566 6.27335 39.8439 6.27391C39.9452 6.27692 40.0312 6.28455 40.1019 6.29679C40.1842 6.32561 40.2653 6.36149 40.3451 6.40444C40.4416 6.4357 40.5298 6.47281 40.6096 6.51575C40.8658 6.63291 41.0428 6.78728 41.1406 6.97886C41.2525 7.17288 41.3113 7.37953 41.317 7.5988Z" fill="black"/>
<path d="M45.7114 9.93196L45.0924 13.2519L45.9402 13.3988C46.5219 13.485 47.0388 13.5673 47.4909 13.6457C47.943 13.724 48.4434 13.818 48.9919 13.9276L49.0979 13.946C49.2674 13.9753 49.4287 14.0106 49.5817 14.0516C49.7512 14.081 49.9137 14.1091 50.0691 14.1361C50.2362 14.1796 50.3938 14.236 50.5418 14.3053C50.6924 14.3605 50.8417 14.4227 50.9897 14.4921C51.2152 14.6185 51.391 14.7799 51.517 14.9764C51.6265 15.1845 51.6616 15.4016 51.6225 15.6277C51.6102 15.6983 51.5955 15.7831 51.5784 15.882C51.5637 15.9668 51.5361 16.042 51.4956 16.1078C51.4404 16.2583 51.3241 16.3837 51.1467 16.4839C51.0589 16.5705 50.9124 16.6179 50.7073 16.626C50.5138 16.6507 50.324 16.6542 50.1379 16.6365C49.9328 16.6446 49.7313 16.6316 49.5335 16.5973L48.5374 16.4247L44.613 15.7665L43.8509 19.913L48.0609 20.6861L49.057 20.8587C49.17 20.8783 49.276 20.8967 49.3749 20.9138C49.4738 20.931 49.5644 20.9539 49.6467 20.9828C49.7549 21.0306 49.8501 21.0689 49.9324 21.0977C50.0313 21.1149 50.1207 21.1449 50.2006 21.1879C50.3603 21.2738 50.4882 21.3759 50.5841 21.4944C50.7009 21.6602 50.767 21.8245 50.7824 21.9872C50.7843 22.0603 50.7779 22.1392 50.7632 22.224C50.7651 22.2971 50.7517 22.3748 50.7228 22.4571C50.6837 22.6832 50.5775 22.8758 50.4044 23.035C50.2006 23.2034 49.9808 23.2963 49.7449 23.3137C49.4262 23.3894 49.0902 23.3967 48.737 23.3355C48.5791 23.3227 48.4154 23.3016 48.2459 23.2722C48.0763 23.2428 47.9126 23.2217 47.7548 23.2089L47.6276 23.1869C46.5207 23.0242 45.3763 22.8259 44.1944 22.592C43.9118 22.543 43.687 22.4968 43.5199 22.4533C43.3503 22.4239 43.1949 22.397 43.0536 22.3725C42.9265 22.3505 42.7922 22.3272 42.651 22.3027C42.5097 22.2782 42.326 22.2464 42.0999 22.2073C41.7701 22.1792 41.5114 22.0762 41.324 21.8982C41.1857 21.7723 41.0889 21.6173 41.0335 21.4331C40.9984 21.3833 40.9846 21.3373 40.9919 21.2949C40.9827 21.2642 40.9723 21.2405 40.9606 21.224C40.9489 21.2074 40.9384 21.1838 40.9292 21.1531C40.9132 21.0775 40.9042 21.0032 40.9023 20.9301C40.9029 20.8429 40.9093 20.764 40.9215 20.6933C40.9197 20.6202 40.9178 20.5471 40.9159 20.474C40.9281 20.4034 40.9333 20.3315 40.9314 20.2584L40.9902 19.9193C41 19.8628 41.0098 19.8063 41.0195 19.7498C41.0435 19.6957 41.0603 19.6404 41.0701 19.5839L41.3566 17.9309L41.9277 14.8865L42.4162 12.0678C42.5043 11.5592 42.5826 11.1071 42.6512 10.7115C42.7339 10.3183 42.8227 9.88982 42.9176 9.42603L42.9359 9.32006C42.977 9.1671 43.0085 9.02703 43.0306 8.89988C43.0692 8.76104 43.1007 8.62098 43.1252 8.47969C43.1883 8.19957 43.3137 7.93752 43.5015 7.69356C43.5776 7.59033 43.6513 7.50122 43.7225 7.42624C43.8078 7.35371 43.9119 7.29898 44.0347 7.26205C44.2687 7.17161 44.4987 7.14598 44.7248 7.18515C44.8378 7.20474 44.9213 7.22649 44.9754 7.25041L44.9791 7.22922C45.2334 7.27329 45.4383 7.30879 45.5937 7.33572C45.7491 7.36265 45.8974 7.38835 46.0387 7.41283C46.1941 7.43976 46.3566 7.46792 46.5262 7.49729C46.6982 7.51254 46.9325 7.54588 47.2292 7.59729C47.7968 7.68109 48.3349 7.76705 48.8435 7.85519C49.3522 7.94332 49.8737 8.04097 50.4081 8.14813L50.4929 8.16281C50.6459 8.20387 50.8071 8.23909 50.9767 8.26847C51.1462 8.29785 51.3075 8.33307 51.4604 8.37412C51.6159 8.40105 51.7676 8.44918 51.9157 8.51849C52.0662 8.57368 52.2143 8.64299 52.3599 8.72644C52.5878 8.8387 52.7648 8.99307 52.8908 9.18954C52.9837 9.40938 53.013 9.61819 52.9788 9.81599C52.9641 9.90076 52.9494 9.98554 52.9347 10.0703C52.9225 10.141 52.8961 10.2091 52.8556 10.2749C52.817 10.4137 52.7065 10.5474 52.5242 10.6759C52.4627 10.6943 52.393 10.7186 52.3151 10.7488C52.2512 10.7814 52.1744 10.8045 52.0848 10.818C51.9951 10.8316 51.8996 10.8369 51.7982 10.8339C51.7135 10.8192 51.6275 10.8116 51.5403 10.811C51.4223 10.8197 51.3139 10.8154 51.215 10.7983C51.1302 10.7836 51.0313 10.7665 50.9183 10.7469L49.9646 10.5816L45.7224 9.86838L45.7114 9.93196Z" fill="black"/>
<path d="M63.377 24.8681C63.3667 25.0119 63.3293 25.1436 63.2649 25.2634C63.2219 25.3433 63.1673 25.4066 63.101 25.4533C63.0488 25.5025 62.9825 25.5492 62.9021 25.5935C62.7602 25.6562 62.5913 25.707 62.3954 25.7458C62.2775 25.7545 62.1608 25.7561 62.0453 25.7507C61.9415 25.7618 61.8356 25.7434 61.7274 25.6956C61.5038 25.6423 61.3207 25.5232 61.1781 25.3384C60.9722 25.099 60.8123 24.8457 60.6985 24.5786C60.6475 24.4534 60.5918 24.3127 60.5315 24.1568C60.4712 24.0008 60.4192 23.839 60.3755 23.6713L58.7979 18.792C58.6849 18.7724 58.5707 18.7599 58.4552 18.7544C58.3422 18.7348 58.2279 18.7223 58.1124 18.7169C57.8108 18.6937 57.527 18.6518 57.261 18.5912C57.0092 18.533 56.7407 18.4865 56.4557 18.4516L56.053 18.3819L55.3884 22.2178C55.3688 22.3308 55.3434 22.4355 55.3121 22.532C55.295 22.6309 55.2766 22.7369 55.257 22.8499C55.2448 22.9205 55.2218 23.0111 55.1881 23.1217C55.1685 23.2347 55.1431 23.3395 55.1118 23.4359C55.0566 23.5865 54.9649 23.7379 54.8366 23.8903C54.7108 24.0286 54.5533 24.1396 54.3642 24.2232C54.0356 24.3555 53.6668 24.3425 53.2576 24.1843C53.0813 24.1101 52.9169 24.0088 52.7645 23.8805C52.7154 23.8284 52.6745 23.7704 52.6419 23.7065C52.6117 23.6285 52.5886 23.5517 52.5726 23.4762C52.5566 23.4007 52.5406 23.3251 52.5246 23.2496C52.5251 23.1624 52.5174 23.081 52.5014 23.0054C52.4835 22.8568 52.4856 22.7189 52.5076 22.5918L54.5934 10.5542C54.6081 10.4694 54.6228 10.3846 54.6375 10.2999C54.6688 10.2034 54.6976 10.1211 54.724 10.0529C54.765 9.89994 54.8414 9.7531 54.9531 9.61237C55.0249 9.45017 55.1163 9.34232 55.2275 9.28881C55.3269 9.21873 55.4663 9.17012 55.6456 9.14298C55.8416 9.10417 56.1078 9.1212 56.4445 9.19409C57.0778 9.31838 57.7053 9.43439 58.327 9.54211C58.9486 9.64983 59.5678 9.77168 60.1846 9.90765C60.5894 10.0069 61.0118 10.131 61.4517 10.28C61.9081 10.4173 62.3207 10.598 62.6893 10.8219C62.9265 10.9649 63.1425 11.1042 63.3373 11.2398C63.5788 11.4417 63.765 11.6268 63.896 11.795C64.3121 12.3328 64.5923 12.9416 64.7364 13.6215C64.8806 14.3014 64.8963 14.9662 64.7837 15.6162C64.6515 16.3791 64.3467 17.0466 63.8692 17.6188C63.4058 18.1934 62.7516 18.5675 61.9065 18.7412C61.8733 18.7646 61.8273 18.7785 61.7683 18.7828C61.7259 18.7754 61.6894 18.7764 61.6587 18.7856L62.9291 23.0442L63.061 23.4163C63.0795 23.4777 63.1038 23.5474 63.134 23.6254C63.1641 23.7034 63.1872 23.7801 63.2032 23.8557C63.2333 23.9337 63.2552 24.0175 63.2688 24.1072C63.2965 24.1993 63.3254 24.2843 63.3555 24.3623C63.3636 24.5675 63.3708 24.7361 63.377 24.8681ZM59.3861 16.4054C59.6404 16.4494 59.888 16.4487 60.1287 16.4031C60.386 16.3458 60.62 16.2554 60.8306 16.1318C61.0553 16.0106 61.2484 15.8622 61.4099 15.6864C61.5737 15.4965 61.6835 15.2827 61.7393 15.045C61.9182 14.3483 61.8251 13.7937 61.46 13.3812C61.0974 12.9546 60.5723 12.6671 59.8849 12.5189C59.4801 12.4196 59.0304 12.3272 58.5359 12.2415C58.0556 12.1582 57.5964 12.0787 57.1584 12.0028C57.0721 12.5845 56.9693 13.1779 56.8499 13.783C56.7471 14.3764 56.6247 15.0828 56.4827 15.9023L59.3861 16.4054Z" fill="black"/>
<path d="M83.6014 27.7613C83.5579 27.9284 83.5061 28.1014 83.446 28.2801C83.3859 28.4589 83.3071 28.6199 83.2095 28.7631C83.1095 28.9204 82.9956 29.0316 82.8679 29.0968C82.688 29.2111 82.4908 29.257 82.2765 29.2344C82.0664 29.2708 81.872 29.2589 81.6932 29.1989C81.5145 29.1388 81.3535 29.0599 81.2103 28.9624C81.0346 28.8009 80.9119 28.6269 80.8424 28.4402C80.7894 28.2418 80.7589 28.0401 80.7508 27.8349C80.7427 27.6298 80.757 27.4213 80.7937 27.2093C80.8304 26.9974 80.8647 26.7996 80.8965 26.6159L81.183 24.9629L81.7236 21.7167C81.7628 21.4906 81.7934 21.314 81.8154 21.1869C81.8375 21.0597 81.8571 20.9467 81.8742 20.8478C81.8938 20.7348 81.9075 20.6134 81.9154 20.4838C81.9399 20.3426 81.9742 20.1448 82.0183 19.8904C82.0256 19.8481 82.0379 19.7774 82.055 19.6785C82.0887 19.5679 82.1318 19.2771 82.1844 18.8059C81.4742 19.6288 80.8865 20.291 80.4212 20.7925C79.9725 21.2823 79.5941 21.6606 79.2859 21.9273C78.9943 22.1824 78.7469 22.3506 78.5436 22.4318C78.3428 22.4988 78.1423 22.5223 77.9421 22.5022C77.8266 22.4967 77.7172 22.4559 77.614 22.3798C77.5108 22.3037 77.41 22.2135 77.3116 22.1091C77.2274 22.0072 77.1432 21.9053 77.059 21.8034C76.9914 21.6898 76.9366 21.5858 76.8948 21.4912C76.6292 21.0086 76.3358 20.4338 76.0148 19.767C75.6937 19.1002 75.3806 18.3037 75.0754 17.3776C75.0729 17.3918 75.0255 17.6237 74.933 18.0733C74.8547 18.5255 74.7567 19.0906 74.6392 19.7688C74.5242 20.4328 74.3923 21.1521 74.2435 21.9268C74.1113 22.6897 73.9806 23.402 73.8514 24.0636C73.7363 24.7276 73.6326 25.2845 73.5401 25.7342C73.4501 26.1697 73.398 26.3862 73.3839 26.3838C73.3422 26.624 73.2466 26.8402 73.0968 27.0326C72.9495 27.2108 72.7659 27.3463 72.5461 27.4392C72.3404 27.5346 72.1092 27.5673 71.8524 27.5373C71.5956 27.5074 71.3324 27.389 71.0626 27.1822C70.8985 27.0373 70.7854 26.8504 70.7232 26.6213C70.6752 26.3947 70.6529 26.1871 70.6565 25.9985C70.6766 25.7983 70.6955 25.6051 70.7132 25.419C70.7451 25.2353 70.7781 25.0445 70.8124 24.8467L71.12 23.1974L71.7067 19.9373L72.1988 17.0975C72.4118 15.8683 72.6635 14.6676 72.9539 13.4955C72.9809 13.3401 73.0195 13.2013 73.0698 13.079C73.1366 12.9451 73.2093 12.8194 73.2879 12.7021C73.4401 12.4956 73.6178 12.3518 73.8211 12.2705C74.055 12.1801 74.2921 12.1557 74.5323 12.1973C74.6312 12.2145 74.7218 12.2374 74.8041 12.2663C74.903 12.2834 74.9936 12.3064 75.076 12.3352C75.3488 12.4407 75.5596 12.6518 75.7084 12.9687C75.8738 13.2738 76.0312 13.5412 76.1806 13.7709C76.2716 13.9176 76.3648 14.0938 76.4601 14.2995C76.5554 14.5052 76.6495 14.718 76.7424 14.9378C76.8353 15.1577 76.9223 15.3692 77.0035 15.5725C77.0848 15.7757 77.1555 15.9554 77.2158 16.1113C77.4803 16.7684 77.711 17.3686 77.9079 17.9121C78.1189 18.458 78.321 18.9296 78.5141 19.3269C78.5638 19.2919 78.6231 19.2439 78.6918 19.1831C78.763 19.1081 78.8342 19.0331 78.9054 18.9581C78.9932 18.8715 79.0656 18.7894 79.1227 18.712C79.1939 18.637 79.2485 18.5737 79.2866 18.5221C79.467 18.3205 79.6463 18.126 79.8243 17.9386C80.0047 17.737 80.1935 17.5296 80.3905 17.3163C80.6041 17.0914 80.8214 16.8453 81.0424 16.5779C81.2775 16.3131 81.5481 16.0107 81.8544 15.6708C81.9827 15.5184 82.1454 15.3356 82.3424 15.1223C82.5394 14.9091 82.7564 14.7066 82.9934 14.5148C83.2304 14.323 83.4683 14.1678 83.7072 14.0491C83.9626 13.9187 84.2033 13.8731 84.4294 13.9123C84.5424 13.9319 84.6401 13.9561 84.7224 13.9849C84.8072 13.9996 84.8907 14.0213 84.9731 14.0501C85.1402 14.0936 85.2892 14.1995 85.4201 14.3677C85.5135 14.5003 85.5775 14.6351 85.612 14.7721C85.6367 14.9655 85.6451 15.1271 85.6372 15.2567C85.6342 15.358 85.6253 15.4511 85.6106 15.5358C85.6101 15.6231 85.6024 15.7091 85.5877 15.7938C85.4506 16.585 85.3218 17.3704 85.2013 18.1499C85.0808 18.9294 84.952 19.7148 84.8149 20.506C84.6484 21.4668 84.477 22.4558 84.3008 23.473C84.1386 24.4927 83.9743 25.4829 83.8078 26.4437C83.7736 26.6415 83.7439 26.8546 83.7189 27.0832C83.6938 27.3117 83.6547 27.5377 83.6014 27.7613Z" fill="black"/>
<path d="M90.1254 17.6279L89.5065 20.9479L90.3542 21.0947C90.9359 21.181 91.4528 21.2633 91.9049 21.3416C92.3571 21.42 92.8574 21.5139 93.406 21.6235L93.5119 21.6419C93.6815 21.6713 93.8427 21.7065 93.9957 21.7476C94.1652 21.7769 94.3277 21.8051 94.4831 21.832C94.6502 21.8755 94.8078 21.9319 94.9559 22.0013C95.1064 22.0564 95.2557 22.1187 95.4038 22.188C95.6293 22.3144 95.805 22.4758 95.9311 22.6723C96.0405 22.8805 96.0757 23.0976 96.0365 23.3236C96.0243 23.3943 96.0096 23.479 95.9924 23.5779C95.9777 23.6627 95.9501 23.738 95.9096 23.8037C95.8545 23.9542 95.7381 24.0796 95.5607 24.1798C95.4729 24.2665 95.3265 24.3139 95.1213 24.322C94.9278 24.3467 94.738 24.3502 94.5519 24.3325C94.3468 24.3406 94.1453 24.3275 93.9475 24.2932L92.9514 24.1206L89.0271 23.4625L88.2649 27.6089L92.475 28.3821L93.471 28.5547C93.5841 28.5743 93.69 28.5926 93.7889 28.6098C93.8878 28.6269 93.9785 28.6499 94.0608 28.6787C94.1689 28.7266 94.2641 28.7649 94.3465 28.7937C94.4454 28.8108 94.5348 28.8409 94.6146 28.8838C94.7744 28.9697 94.9022 29.0719 94.9981 29.1904C95.1149 29.3562 95.181 29.5204 95.1965 29.6832C95.1984 29.7563 95.192 29.8352 95.1773 29.92C95.1792 29.9931 95.1657 30.0708 95.1369 30.1531C95.0977 30.3792 94.9916 30.5718 94.8185 30.731C94.6146 30.8994 94.3948 30.9923 94.159 31.0096C93.8402 31.0854 93.5042 31.0926 93.151 31.0314C92.9932 31.0186 92.8295 30.9975 92.6599 30.9682C92.4904 30.9388 92.3267 30.9177 92.1688 30.9049L92.0417 30.8829C90.9347 30.7202 89.7903 30.5219 88.6084 30.288C88.3258 30.239 88.101 30.1928 87.9339 30.1492C87.7644 30.1199 87.6089 30.0929 87.4677 30.0685C87.3405 30.0464 87.2063 30.0232 87.065 29.9987C86.9237 29.9742 86.74 29.9424 86.514 29.9032C86.1841 29.8752 85.9255 29.7721 85.738 29.5941C85.5997 29.4683 85.5029 29.3133 85.4475 29.129C85.4125 29.0793 85.3986 29.0332 85.406 28.9909C85.3967 28.9601 85.3863 28.9365 85.3746 28.9199C85.3629 28.9034 85.3525 28.8797 85.3432 28.849C85.3272 28.7735 85.3183 28.6992 85.3164 28.6261C85.3169 28.5388 85.3233 28.4599 85.3356 28.3893C85.3337 28.3162 85.3318 28.2431 85.3299 28.17C85.3422 28.0993 85.3473 28.0275 85.3455 27.9544L85.4042 27.6153C85.414 27.5588 85.4238 27.5023 85.4336 27.4458C85.4575 27.3917 85.4744 27.3364 85.4842 27.2799L85.7706 25.6268L86.3418 22.5824L86.8302 19.7638C86.9183 19.2551 86.9967 18.803 87.0652 18.4074C87.1479 18.0143 87.2367 17.5858 87.3316 17.122L87.35 17.016C87.391 16.8631 87.4226 16.723 87.4446 16.5958C87.4832 16.457 87.5148 16.3169 87.5392 16.1756C87.6023 15.8955 87.7278 15.6335 87.9156 15.3895C87.9917 15.2863 88.0653 15.1972 88.1365 15.1222C88.2219 15.0497 88.326 14.9949 88.4488 14.958C88.6827 14.8676 88.9127 14.8419 89.1388 14.8811C89.2518 14.9007 89.3354 14.9224 89.3894 14.9464L89.3931 14.9252C89.6474 14.9692 89.8523 15.0047 90.0077 15.0317C90.1631 15.0586 90.3115 15.0843 90.4528 15.1088C90.6082 15.1357 90.7707 15.1639 90.9402 15.1933C91.1122 15.2085 91.3465 15.2418 91.6432 15.2932C92.2108 15.377 92.7489 15.463 93.2576 15.5511C93.7662 15.6393 94.2877 15.7369 94.8222 15.8441L94.9069 15.8588C95.0599 15.8998 95.2212 15.935 95.3907 15.9644C95.5603 15.9938 95.7215 16.029 95.8745 16.0701C96.0299 16.097 96.1816 16.1451 96.3297 16.2144C96.4802 16.2696 96.6283 16.3389 96.7739 16.4224C97.0019 16.5347 97.1788 16.689 97.3049 16.8855C97.3978 17.1053 97.4271 17.3141 97.3928 17.5119C97.3781 17.5967 97.3634 17.6815 97.3487 17.7663C97.3365 17.8369 97.3101 17.9051 97.2696 17.9708C97.231 18.1097 97.1205 18.2433 96.9382 18.3718C96.8768 18.3903 96.8071 18.4146 96.7291 18.4447C96.6652 18.4773 96.5885 18.5004 96.4988 18.514C96.4091 18.5276 96.3136 18.5328 96.2123 18.5298C96.1275 18.5151 96.0415 18.5075 95.9543 18.507C95.8364 18.5156 95.728 18.5114 95.6291 18.4943C95.5443 18.4796 95.4454 18.4624 95.3324 18.4428L94.3787 18.2776L90.1364 17.5643L90.1254 17.6279Z" fill="black"/>
<path d="M100.354 16.1478C100.499 15.9837 100.678 15.8764 100.89 15.8259C101.103 15.7754 101.301 15.7661 101.484 15.7979C101.64 15.8248 101.787 15.8576 101.926 15.8962C102.081 15.9231 102.227 15.963 102.363 16.0157C102.645 16.1519 102.824 16.3793 102.9 16.6981C102.978 17.0027 102.998 17.3482 102.961 17.7345C102.939 18.1092 102.883 18.4778 102.791 18.8402C102.713 19.2051 102.655 19.5006 102.615 19.7267L101.532 25.9786C101.483 26.2611 101.434 26.5437 101.385 26.8263C101.336 27.1089 101.24 27.3687 101.097 27.6059C100.957 27.829 100.743 27.9737 100.454 28.0403C100.166 28.1068 99.8741 28.1143 99.5774 28.0629C99.2831 27.9974 99.0116 27.8848 98.7627 27.7253C98.5163 27.5516 98.3632 27.3432 98.3035 27.1C98.2832 26.9655 98.2748 26.8039 98.2783 26.6154C98.2985 26.4151 98.3149 26.2361 98.3277 26.0782C98.3552 25.8356 98.391 25.5871 98.4351 25.3328C98.4957 25.0668 98.5493 24.7996 98.5958 24.5311L99.826 17.4315C99.8554 17.262 99.9145 17.0466 100.003 16.7855C100.092 16.5244 100.209 16.3118 100.354 16.1478ZM100.43 30.1971C100.46 30.2751 100.483 30.3519 100.499 30.4274C100.532 30.4913 100.555 30.568 100.568 30.6577C100.584 30.8204 100.584 30.9878 100.569 31.1598C100.554 31.3318 100.51 31.4989 100.438 31.6611C100.369 31.8092 100.273 31.9453 100.149 32.0694C100.026 32.1936 99.8733 32.2763 99.6915 32.3175C99.5238 32.3613 99.3328 32.3718 99.1184 32.3492C98.9041 32.3266 98.7016 32.277 98.5112 32.2003C98.3207 32.1237 98.1505 32.0142 98.0006 31.8717C97.8506 31.7293 97.7562 31.5602 97.7174 31.3643C97.681 31.1542 97.6778 30.9208 97.7078 30.6641C97.7543 30.3956 97.83 30.1686 97.9349 29.9831C98.0564 29.7858 98.2151 29.6678 98.411 29.629C98.6094 29.576 98.8145 29.5679 99.0265 29.6046C99.2973 29.637 99.5575 29.6894 99.8069 29.7617C100.07 29.8365 100.278 29.9816 100.43 30.1971Z" fill="black"/>
</svg>
